<svg version="1.1" class="highcharts-root " style="font-family:&quot;Lucida Grande&quot;, &quot;Lucida Sans Unicode&quot;, Arial, Helvetica, sans-serif;font-size:12px;" xmlns="http://www.w3.org/2000/svg" width="225" height="158" viewBox="0 0 225 158"><desc>Created with Highstock 5.0.12</desc><defs><clipPath id="highcharts-idugh08-42"><rect x="0" y="0" width="72" height="233" fill="none"></rect></clipPath><clipPath id="highcharts-idugh08-43"><rect x="0" y="0" width="72" height="233" fill="none"></rect></clipPath></defs><rect fill="#ffffff" class="highcharts-background" stroke="#C0D0E0" stroke-width="1" x="0.5" y="0.5" width="223" height="156" rx="0" ry="0"></rect><rect fill="none" class="highcharts-plot-background" x="-10" y="35" width="233" height="72"></rect><path fill="none" d="M -1 0 L -10 35" stroke="#C0D0E0" stroke-width="1"></path><g class="highcharts-pane-group"></g><g class="highcharts-grid highcharts-yaxis-grid "><path fill="none" stroke="#C0D0E0" stroke-width="1" class="highcharts-grid-line" d="M -10.5 35 L -10.5 107" opacity="1"></path><path fill="none" stroke="#C0D0E0" stroke-width="1" class="highcharts-grid-line" d="M 47.5 35 L 47.5 107" opacity="1"></path><path fill="none" stroke="#C0D0E0" stroke-width="1" class="highcharts-grid-line" d="M 106.5 35 L 106.5 107" opacity="1"></path><path fill="none" stroke="#C0D0E0" stroke-width="1" class="highcharts-grid-line" d="M 164.5 35 L 164.5 107" opacity="1"></path><path fill="none" stroke="#C0D0E0" stroke-width="1" class="highcharts-grid-line" d="M 223.5 35 L 223.5 107" opacity="1"></path></g><rect fill="none" class="highcharts-plot-border" x="-10" y="35" width="233" height="72"></rect><g class="highcharts-axis highcharts-yaxis "><path fill="none" class="highcharts-tick" stroke="#ccd6eb" stroke-width="1" d="M -10.5 35 L -10.5 25" opacity="1"></path><path fill="none" class="highcharts-tick" stroke="#ccd6eb" stroke-width="1" d="M 47.5 35 L 47.5 25" opacity="1"></path><path fill="none" class="highcharts-tick" stroke="#ccd6eb" stroke-width="1" d="M 106.5 35 L 106.5 25" opacity="1"></path><path fill="none" class="highcharts-tick" stroke="#ccd6eb" stroke-width="1" d="M 164.5 35 L 164.5 25" opacity="1"></path><path fill="none" class="highcharts-tick" stroke="#ccd6eb" stroke-width="1" d="M 223.5 35 L 223.5 25" opacity="1"></path><path fill="none" class="highcharts-axis-line" d="M -10 35 L 223 35"></path></g><g class="highcharts-series-group"><g class="highcharts-series highcharts-series-0 highcharts-columnrange-series highcharts-color-0 highcharts-tracker " transform="translate(223,107) rotate(90) scale(-1,1) scale(1 1)" clip-path="url(#highcharts-idugh08-43)" width="233" height="72"><rect x="52.5" y="22.426249999999953" width="15" height="175.91500000000002" fill="rgba(0, 108, 238, .2)" stroke="rgba(0, 108, 238, .2)" stroke-width="1" class="highcharts-point highcharts-color-0"></rect><rect x="4.5" y="72.52125000000001" width="15" height="125.52875" fill="rgba(0, 108, 238, .2)" stroke="rgba(0, 108, 238, .2)" stroke-width="1" class="highcharts-point highcharts-color-0 "></rect></g><g class="highcharts-markers highcharts-series-0 highcharts-columnrange-series highcharts-color-0 " transform="translate(223,107) rotate(90) scale(-1,1) scale(1 1)" clip-path="none"></g><g class="highcharts-series highcharts-series-1 highcharts-columnrange-series highcharts-color-undefined highcharts-tracker" transform="translate(223,107) rotate(90) scale(-1,1) scale(1 1)" clip-path="url(#highcharts-idugh08-43)" width="233" height="72"><rect x="52.5" y="161.885" width="15" height="0.1" fill="#000" stroke="#000" stroke-width="1" class="highcharts-point"></rect><rect x="4.5" y="170.33124999999998" width="15" height="0.1" fill="#000" stroke="#000" stroke-width="1" class="highcharts-point"></rect></g><g class="highcharts-markers highcharts-series-1 highcharts-columnrange-series highcharts-color-undefined " transform="translate(223,107) rotate(90) scale(-1,1) scale(1 1)" clip-path="none"></g><g class="highcharts-series highcharts-series-2 highcharts-columnrange-series highcharts-color-1 highcharts-tracker " transform="translate(223,107) rotate(90) scale(-1,1) scale(1 1)" clip-path="url(#highcharts-idugh08-43)" width="233" height="72"><rect x="56.5" y="106.01500000000001" width="6" height="90.2875" fill="rgba(0, 108, 238, 0.6)" stroke="rgba(0, 108, 238, .2)" stroke-width="1" class="highcharts-point highcharts-color-1"></rect><rect x="32.5" y="85.04499999999996" width="6" height="85.91875000000005" fill="rgba(0, 108, 238, 0.6)" stroke="rgba(0, 108, 238, .2)" stroke-width="1" class="highcharts-point highcharts-color-1"></rect><rect x="8.5" y="82.715" width="6" height="96.98625000000001" fill="rgba(0, 108, 238, 0.6)" stroke="rgba(0, 108, 238, .2)" stroke-width="1" class="highcharts-point highcharts-color-1 "></rect></g><g class="highcharts-markers highcharts-series-2 highcharts-columnrange-series highcharts-color-1 " transform="translate(223,107) rotate(90) scale(-1,1) scale(1 1)" clip-path="none"></g><g class="highcharts-series highcharts-series-3 highcharts-columnrange-series highcharts-color-undefined highcharts-tracker" transform="translate(223,107) rotate(90) scale(-1,1) scale(1 1)" clip-path="url(#highcharts-idugh08-43)" width="233" height="72"><rect x="56.5" y="183.72874999999996" width="6" height="0.1" fill="red" stroke="red" stroke-width="1" class="highcharts-point"></rect><rect x="32.5" y="144.70125" width="6" height="0.1" fill="red" stroke="red" stroke-width="1" class="highcharts-point"></rect><rect x="8.5" y="165.38" width="6" height="0.1" fill="red" stroke="red" stroke-width="1" class="highcharts-point"></rect></g><g class="highcharts-markers highcharts-series-3 highcharts-columnrange-series highcharts-color-undefined " transform="translate(223,107) rotate(90) scale(-1,1) scale(1 1)" clip-path="none"></g></g><g class="highcharts-button highcharts-contextbutton" style="cursor:pointer;" stroke-linecap="round" transform="translate(199,10)"><title>图表导出菜单</title><rect fill="#ffffff" class=" highcharts-button-box" x="0.5" y="0.5" width="24" height="22" rx="2" ry="2" stroke="none" stroke-width="1"></rect><path fill="#666666" d="M 6 6.5 L 20 6.5 M 6 11.5 L 20 11.5 M 6 16.5 L 20 16.5" class="highcharts-button-symbol" stroke="#666666" stroke-width="3"></path><text x="0" style="font-weight:normal;color:#333333;fill:#333333;" y="12"></text></g><g class="highcharts-legend" transform="translate(30,119)"><rect fill="none" class="highcharts-legend-box" rx="0" ry="0" x="0" y="0" width="154" height="29" visibility="visible"></rect><g><g><g class="highcharts-legend-item highcharts-columnrange-series highcharts-color-1 highcharts-series-2" transform="translate(8,3)"><text x="21" style="color:#333333;font-size:12px;font-weight:bold;cursor:pointer;fill:#333333;" text-anchor="start" y="15"><tspan>小时均值</tspan></text><rect x="2" y="4" width="12" height="12" fill="rgba(0, 108, 238, 0.6)" rx="6" ry="6" class="highcharts-point"></rect></g><g class="highcharts-legend-item highcharts-columnrange-series highcharts-color-undefined highcharts-series-3" transform="translate(99,3)"><text x="21" y="15" style="color:#333333;font-size:12px;font-weight:bold;cursor:pointer;fill:#333333;" text-anchor="start"><tspan>均值</tspan></text><rect x="2" y="4" width="12" height="12" fill="red" rx="6" ry="6" class="highcharts-point"></rect></g></g></g></g><g class="highcharts-axis-labels highcharts-yaxis-labels "><text x="0" style="color:#666666;cursor:default;font-size:11px;fill:#666666;" text-anchor="middle" transform="translate(0,0)" y="-9999">80</text><text x="48.25" style="color:#666666;cursor:default;font-size:11px;fill:#666666;" text-anchor="middle" transform="translate(0,0)" y="21" opacity="1">100</text><text x="106.5" style="color:#666666;cursor:default;font-size:11px;fill:#666666;" text-anchor="middle" transform="translate(0,0)" y="21" opacity="1">120</text><text x="164.75" style="color:#666666;cursor:default;font-size:11px;fill:#666666;" text-anchor="middle" transform="translate(0,0)" y="21" opacity="1">140</text><text x="0" style="color:#666666;cursor:default;font-size:11px;fill:#666666;" text-anchor="middle" transform="translate(0,0)" y="-9999">160</text></g><g class="highcharts-label highcharts-tooltip highcharts-color-0" style="cursor:default;pointer-events:none;white-space:nowrap;" transform="translate(1,-9999)" opacity="0" visibility="visible"><path fill="none" class="highcharts-label-box highcharts-tooltip-box" d="M 3.5 0.5 L 80.5 0.5 86.5 -5.5 92.5 0.5 171 0.5 C 174.5 0.5 174.5 0.5 174.5 3.5 L 174.5 44.5 C 174.5 47.5 174.5 47.5 171.5 47.5 L 3.5 47.5 C 0.5 47.5 0.5 47.5 0.5 44.5 L 0.5 3.5 C 0.5 0.5 0.5 0.5 3.5 0.5" isShadow="true" stroke="#000000" stroke-opacity="0.049999999999999996" stroke-width="5" transform="translate(1, 1)"></path><path fill="none" class="highcharts-label-box highcharts-tooltip-box" d="M 3.5 0.5 L 80.5 0.5 86.5 -5.5 92.5 0.5 171 0.5 C 174.5 0.5 174.5 0.5 174.5 3.5 L 174.5 44.5 C 174.5 47.5 174.5 47.5 171.5 47.5 L 3.5 47.5 C 0.5 47.5 0.5 47.5 0.5 44.5 L 0.5 3.5 C 0.5 0.5 0.5 0.5 3.5 0.5" isShadow="true" stroke="#000000" stroke-opacity="0.09999999999999999" stroke-width="3" transform="translate(1, 1)"></path><path fill="none" class="highcharts-label-box highcharts-tooltip-box" d="M 3.5 0.5 L 80.5 0.5 86.5 -5.5 92.5 0.5 171 0.5 C 174.5 0.5 174.5 0.5 174.5 3.5 L 174.5 44.5 C 174.5 47.5 174.5 47.5 171.5 47.5 L 3.5 47.5 C 0.5 47.5 0.5 47.5 0.5 44.5 L 0.5 3.5 C 0.5 0.5 0.5 0.5 3.5 0.5" isShadow="true" stroke="#000000" stroke-opacity="0.15" stroke-width="1" transform="translate(1, 1)"></path><path fill="rgba(247,247,247,0.85)" class="highcharts-label-box highcharts-tooltip-box" d="M 3.5 0.5 L 80.5 0.5 86.5 -5.5 92.5 0.5 171 0.5 C 174.5 0.5 174.5 0.5 174.5 3.5 L 174.5 44.5 C 174.5 47.5 174.5 47.5 171.5 47.5 L 3.5 47.5 C 0.5 47.5 0.5 47.5 0.5 44.5 L 0.5 3.5 C 0.5 0.5 0.5 0.5 3.5 0.5" stroke="rgba(0, 108, 238, .2)" stroke-width="1"></path><text x="8" style="font-size:12px;color:#333333;fill:#333333;" y="20"><tspan style="font-size: 10px">西宁南山路站</tspan><tspan style="fill:rgba(0, 108, 238, .2)" x="8" dy="15">●</tspan><tspan dx="0"> 历年小时均值: </tspan><tspan style="font-weight:bold" dx="0">92</tspan><tspan dx="0"> - </tspan><tspan style="font-weight:bold" dx="0">135.1</tspan></text></g></svg>